<?xml version="1.0" encoding="UTF-8"?>
<svg xmlns="http://www.w3.org/2000/svg" xmlns:xlink="http://www.w3.org/1999/xlink" width="168.511" height="168.511" viewBox="0 0 168.511 168.511">
<path fill-rule="nonzero" fill="rgb(100%, 100%, 100%)" fill-opacity="1" d="M 8.898438 159.609375 L 8.898438 8.898438 L 159.613281 8.898438 L 159.613281 159.609375 Z M 8.898438 159.609375 "/>
<path fill="none" stroke-width="0.3985" stroke-linecap="butt" stroke-linejoin="miter" stroke="rgb(0%, 0%, 0%)" stroke-opacity="1" stroke-miterlimit="10" d="M 0.001625 -0.00009375 L 0.001625 141.734281 L 141.732094 141.734281 L 141.732094 -0.00009375 Z M 0.001625 -0.00009375 " transform="matrix(1, 0, 0, -1, 13.389, 155.121)"/>
<path fill="none" stroke-width="0.3985" stroke-linecap="butt" stroke-linejoin="miter" stroke="rgb(50%, 50%, 50%)" stroke-opacity="1" stroke-dasharray="2.98883 1.99255" stroke-miterlimit="10" d="M 70.868813 -0.00009375 L 70.868813 141.734281 " transform="matrix(1, 0, 0, -1, 13.389, 155.121)"/>
<path fill="none" stroke-width="0.3985" stroke-linecap="butt" stroke-linejoin="miter" stroke="rgb(50%, 50%, 50%)" stroke-opacity="1" stroke-dasharray="2.98883 1.99255" stroke-miterlimit="10" d="M 70.868813 70.867094 L 141.732094 70.867094 " transform="matrix(1, 0, 0, -1, 13.389, 155.121)"/>
<path fill="none" stroke-width="0.3985" stroke-linecap="butt" stroke-linejoin="miter" stroke="rgb(50%, 50%, 50%)" stroke-opacity="1" stroke-dasharray="2.98883 1.99255" stroke-miterlimit="10" d="M 106.302406 70.867094 L 106.302406 141.734281 " transform="matrix(1, 0, 0, -1, 13.389, 155.121)"/>
<path fill="none" stroke-width="0.3985" stroke-linecap="butt" stroke-linejoin="miter" stroke="rgb(50%, 50%, 50%)" stroke-opacity="1" stroke-dasharray="2.98883 1.99255" stroke-miterlimit="10" d="M 106.302406 106.300687 L 141.732094 106.300687 " transform="matrix(1, 0, 0, -1, 13.389, 155.121)"/>
<path fill="none" stroke-width="0.3985" stroke-linecap="butt" stroke-linejoin="miter" stroke="rgb(50%, 50%, 50%)" stroke-opacity="1" stroke-dasharray="2.98883 1.99255" stroke-miterlimit="10" d="M 124.01725 106.300687 L 124.01725 141.734281 " transform="matrix(1, 0, 0, -1, 13.389, 155.121)"/>
<path fill="none" stroke-width="0.3985" stroke-linecap="butt" stroke-linejoin="miter" stroke="rgb(50%, 50%, 50%)" stroke-opacity="1" stroke-dasharray="2.98883 1.99255" stroke-miterlimit="10" d="M 124.01725 124.015531 L 141.732094 124.015531 " transform="matrix(1, 0, 0, -1, 13.389, 155.121)"/>
<path fill="none" stroke-width="0.3985" stroke-linecap="butt" stroke-linejoin="miter" stroke="rgb(50%, 50%, 50%)" stroke-opacity="1" stroke-dasharray="2.98883 1.99255" stroke-miterlimit="10" d="M 132.876625 124.015531 L 132.876625 141.734281 " transform="matrix(1, 0, 0, -1, 13.389, 155.121)"/>
<path fill="none" stroke-width="0.3985" stroke-linecap="butt" stroke-linejoin="miter" stroke="rgb(50%, 50%, 50%)" stroke-opacity="1" stroke-dasharray="2.98883 1.99255" stroke-miterlimit="10" d="M 132.876625 132.874906 L 141.732094 132.874906 " transform="matrix(1, 0, 0, -1, 13.389, 155.121)"/>
<path fill="none" stroke-width="0.3985" stroke-linecap="butt" stroke-linejoin="miter" stroke="rgb(50%, 50%, 50%)" stroke-opacity="1" stroke-dasharray="2.98883 1.99255" stroke-miterlimit="10" d="M 137.306312 132.874906 L 137.306312 141.734281 " transform="matrix(1, 0, 0, -1, 13.389, 155.121)"/>
<path fill="none" stroke-width="0.3985" stroke-linecap="butt" stroke-linejoin="miter" stroke="rgb(50%, 50%, 50%)" stroke-opacity="1" stroke-dasharray="2.98883 1.99255" stroke-miterlimit="10" d="M 137.306312 137.304594 L 141.732094 137.304594 " transform="matrix(1, 0, 0, -1, 13.389, 155.121)"/>
<path fill="none" stroke-width="0.3985" stroke-linecap="butt" stroke-linejoin="miter" stroke="rgb(50%, 50%, 50%)" stroke-opacity="1" stroke-dasharray="2.98883 1.99255" stroke-miterlimit="10" d="M 139.521156 137.304594 L 139.521156 141.734281 " transform="matrix(1, 0, 0, -1, 13.389, 155.121)"/>
<path fill="none" stroke-width="0.3985" stroke-linecap="butt" stroke-linejoin="miter" stroke="rgb(50%, 50%, 50%)" stroke-opacity="1" stroke-dasharray="2.98883 1.99255" stroke-miterlimit="10" d="M 139.521156 139.519437 L 141.732094 139.519437 " transform="matrix(1, 0, 0, -1, 13.389, 155.121)"/>
<path fill="none" stroke-width="0.3985" stroke-linecap="butt" stroke-linejoin="miter" stroke="rgb(50%, 50%, 50%)" stroke-opacity="1" stroke-dasharray="2.98883 1.99255" stroke-miterlimit="10" d="M 140.626625 139.519437 L 140.626625 141.734281 " transform="matrix(1, 0, 0, -1, 13.389, 155.121)"/>
<path fill="none" stroke-width="0.3985" stroke-linecap="butt" stroke-linejoin="miter" stroke="rgb(50%, 50%, 50%)" stroke-opacity="1" stroke-dasharray="2.98883 1.99255" stroke-miterlimit="10" d="M 140.626625 140.624906 L 141.732094 140.624906 " transform="matrix(1, 0, 0, -1, 13.389, 155.121)"/>
<path fill="none" stroke-width="0.3985" stroke-linecap="butt" stroke-linejoin="miter" stroke="rgb(50%, 50%, 50%)" stroke-opacity="1" stroke-dasharray="2.98883 1.99255" stroke-miterlimit="10" d="M 141.181312 140.624906 L 141.181312 141.734281 " transform="matrix(1, 0, 0, -1, 13.389, 155.121)"/>
<path fill="none" stroke-width="0.3985" stroke-linecap="butt" stroke-linejoin="miter" stroke="rgb(50%, 50%, 50%)" stroke-opacity="1" stroke-dasharray="2.98883 1.99255" stroke-miterlimit="10" d="M 141.181312 141.179594 L 141.732094 141.179594 " transform="matrix(1, 0, 0, -1, 13.389, 155.121)"/>
<path fill="none" stroke-width="0.3985" stroke-linecap="butt" stroke-linejoin="miter" stroke="rgb(50%, 50%, 50%)" stroke-opacity="1" stroke-dasharray="2.98883 1.99255" stroke-miterlimit="10" d="M 141.458656 141.179594 L 141.458656 141.734281 " transform="matrix(1, 0, 0, -1, 13.389, 155.121)"/>
<path fill="none" stroke-width="0.3985" stroke-linecap="butt" stroke-linejoin="miter" stroke="rgb(50%, 50%, 50%)" stroke-opacity="1" stroke-dasharray="2.98883 1.99255" stroke-miterlimit="10" d="M 141.458656 141.456937 L 141.732094 141.456937 " transform="matrix(1, 0, 0, -1, 13.389, 155.121)"/>
<path fill="none" stroke-width="0.3985" stroke-linecap="butt" stroke-linejoin="miter" stroke="rgb(50%, 50%, 50%)" stroke-opacity="1" stroke-dasharray="2.98883 1.99255" stroke-miterlimit="10" d="M 141.595375 141.456937 L 141.595375 141.734281 " transform="matrix(1, 0, 0, -1, 13.389, 155.121)"/>
<path fill="none" stroke-width="0.3985" stroke-linecap="butt" stroke-linejoin="miter" stroke="rgb(50%, 50%, 50%)" stroke-opacity="1" stroke-dasharray="2.98883 1.99255" stroke-miterlimit="10" d="M 141.595375 141.597562 L 141.732094 141.597562 " transform="matrix(1, 0, 0, -1, 13.389, 155.121)"/>
</svg>
