<?xml version="1.0" encoding="UTF-8"?>
<svg xmlns="http://www.w3.org/2000/svg" xmlns:xlink="http://www.w3.org/1999/xlink" width="159.932" height="159.932" viewBox="0 0 159.932 159.932">
<path fill="none" stroke-width="0.3985" stroke-linecap="butt" stroke-linejoin="miter" stroke="rgb(0%, 0%, 0%)" stroke-opacity="1" stroke-miterlimit="10" d="M 0.0015625 -0.00003125 L 0.0015625 141.734344 L 141.735938 141.734344 L 141.735938 -0.00003125 Z M 0.0015625 -0.00003125 " transform="matrix(1, 0, 0, -1, 9.1, 150.832)"/>
<path fill="none" stroke-width="0.3985" stroke-linecap="butt" stroke-linejoin="miter" stroke="rgb(50%, 50%, 50%)" stroke-opacity="1" stroke-dasharray="2.98883 1.99255" stroke-miterlimit="10" d="M 70.86875 -0.00003125 L 70.86875 141.734344 " transform="matrix(1, 0, 0, -1, 9.1, 150.832)"/>
<path fill="none" stroke-width="0.3985" stroke-linecap="butt" stroke-linejoin="miter" stroke="rgb(50%, 50%, 50%)" stroke-opacity="1" stroke-dasharray="2.98883 1.99255" stroke-miterlimit="10" d="M 70.86875 70.867156 L 141.735938 70.867156 " transform="matrix(1, 0, 0, -1, 9.1, 150.832)"/>
<path fill="none" stroke-width="0.3985" stroke-linecap="butt" stroke-linejoin="miter" stroke="rgb(50%, 50%, 50%)" stroke-opacity="1" stroke-dasharray="2.98883 1.99255" stroke-miterlimit="10" d="M 106.302344 70.867156 L 106.302344 141.734344 " transform="matrix(1, 0, 0, -1, 9.1, 150.832)"/>
<path fill="none" stroke-width="0.3985" stroke-linecap="butt" stroke-linejoin="miter" stroke="rgb(50%, 50%, 50%)" stroke-opacity="1" stroke-dasharray="2.98883 1.99255" stroke-miterlimit="10" d="M 106.302344 106.30075 L 141.735938 106.30075 " transform="matrix(1, 0, 0, -1, 9.1, 150.832)"/>
<path fill="none" stroke-width="0.3985" stroke-linecap="butt" stroke-linejoin="miter" stroke="rgb(50%, 50%, 50%)" stroke-opacity="1" stroke-dasharray="2.98883 1.99255" stroke-miterlimit="10" d="M 124.017188 106.30075 L 124.017188 141.734344 " transform="matrix(1, 0, 0, -1, 9.1, 150.832)"/>
<path fill="none" stroke-width="0.3985" stroke-linecap="butt" stroke-linejoin="miter" stroke="rgb(50%, 50%, 50%)" stroke-opacity="1" stroke-dasharray="2.98883 1.99255" stroke-miterlimit="10" d="M 124.017188 124.015594 L 141.735938 124.015594 " transform="matrix(1, 0, 0, -1, 9.1, 150.832)"/>
<path fill="none" stroke-width="0.3985" stroke-linecap="butt" stroke-linejoin="miter" stroke="rgb(50%, 50%, 50%)" stroke-opacity="1" stroke-dasharray="2.98883 1.99255" stroke-miterlimit="10" d="M 132.876563 124.015594 L 132.876563 141.734344 " transform="matrix(1, 0, 0, -1, 9.1, 150.832)"/>
<path fill="none" stroke-width="0.3985" stroke-linecap="butt" stroke-linejoin="miter" stroke="rgb(50%, 50%, 50%)" stroke-opacity="1" stroke-dasharray="2.98883 1.99255" stroke-miterlimit="10" d="M 132.876563 132.874969 L 141.735938 132.874969 " transform="matrix(1, 0, 0, -1, 9.1, 150.832)"/>
<path fill="none" stroke-width="0.3985" stroke-linecap="butt" stroke-linejoin="miter" stroke="rgb(50%, 50%, 50%)" stroke-opacity="1" stroke-dasharray="2.98883 1.99255" stroke-miterlimit="10" d="M 137.30625 132.874969 L 137.30625 141.734344 " transform="matrix(1, 0, 0, -1, 9.1, 150.832)"/>
<path fill="none" stroke-width="0.3985" stroke-linecap="butt" stroke-linejoin="miter" stroke="rgb(50%, 50%, 50%)" stroke-opacity="1" stroke-dasharray="2.98883 1.99255" stroke-miterlimit="10" d="M 137.30625 137.304656 L 141.735938 137.304656 " transform="matrix(1, 0, 0, -1, 9.1, 150.832)"/>
<path fill="none" stroke-width="0.3985" stroke-linecap="butt" stroke-linejoin="miter" stroke="rgb(50%, 50%, 50%)" stroke-opacity="1" stroke-dasharray="2.98883 1.99255" stroke-miterlimit="10" d="M 139.521094 137.304656 L 139.521094 141.734344 " transform="matrix(1, 0, 0, -1, 9.1, 150.832)"/>
<path fill="none" stroke-width="0.3985" stroke-linecap="butt" stroke-linejoin="miter" stroke="rgb(50%, 50%, 50%)" stroke-opacity="1" stroke-dasharray="2.98883 1.99255" stroke-miterlimit="10" d="M 139.521094 139.5195 L 141.735938 139.5195 " transform="matrix(1, 0, 0, -1, 9.1, 150.832)"/>
<path fill="none" stroke-width="0.3985" stroke-linecap="butt" stroke-linejoin="miter" stroke="rgb(50%, 50%, 50%)" stroke-opacity="1" stroke-dasharray="2.98883 1.99255" stroke-miterlimit="10" d="M 140.626563 139.5195 L 140.626563 141.734344 " transform="matrix(1, 0, 0, -1, 9.1, 150.832)"/>
<path fill="none" stroke-width="0.3985" stroke-linecap="butt" stroke-linejoin="miter" stroke="rgb(50%, 50%, 50%)" stroke-opacity="1" stroke-dasharray="2.98883 1.99255" stroke-miterlimit="10" d="M 140.626563 140.624969 L 141.735938 140.624969 " transform="matrix(1, 0, 0, -1, 9.1, 150.832)"/>
<path fill="none" stroke-width="0.3985" stroke-linecap="butt" stroke-linejoin="miter" stroke="rgb(50%, 50%, 50%)" stroke-opacity="1" stroke-dasharray="2.98883 1.99255" stroke-miterlimit="10" d="M 141.18125 140.624969 L 141.18125 141.734344 " transform="matrix(1, 0, 0, -1, 9.1, 150.832)"/>
<path fill="none" stroke-width="0.3985" stroke-linecap="butt" stroke-linejoin="miter" stroke="rgb(50%, 50%, 50%)" stroke-opacity="1" stroke-dasharray="2.98883 1.99255" stroke-miterlimit="10" d="M 141.18125 141.179656 L 141.735938 141.179656 " transform="matrix(1, 0, 0, -1, 9.1, 150.832)"/>
<path fill="none" stroke-width="0.3985" stroke-linecap="butt" stroke-linejoin="miter" stroke="rgb(50%, 50%, 50%)" stroke-opacity="1" stroke-dasharray="2.98883 1.99255" stroke-miterlimit="10" d="M 141.458594 141.179656 L 141.458594 141.734344 " transform="matrix(1, 0, 0, -1, 9.1, 150.832)"/>
<path fill="none" stroke-width="0.3985" stroke-linecap="butt" stroke-linejoin="miter" stroke="rgb(50%, 50%, 50%)" stroke-opacity="1" stroke-dasharray="2.98883 1.99255" stroke-miterlimit="10" d="M 141.458594 141.457 L 141.735938 141.457 " transform="matrix(1, 0, 0, -1, 9.1, 150.832)"/>
<path fill="none" stroke-width="0.3985" stroke-linecap="butt" stroke-linejoin="miter" stroke="rgb(50%, 50%, 50%)" stroke-opacity="1" stroke-dasharray="2.98883 1.99255" stroke-miterlimit="10" d="M 141.595313 141.457 L 141.595313 141.734344 " transform="matrix(1, 0, 0, -1, 9.1, 150.832)"/>
<path fill="none" stroke-width="0.3985" stroke-linecap="butt" stroke-linejoin="miter" stroke="rgb(50%, 50%, 50%)" stroke-opacity="1" stroke-dasharray="2.98883 1.99255" stroke-miterlimit="10" d="M 141.595313 141.593719 L 141.735938 141.593719 " transform="matrix(1, 0, 0, -1, 9.1, 150.832)"/>
</svg>
